<?xml version="1.0" encoding="UTF-8" standalone="no"?>
<!DOCTYPE svg PUBLIC "-//W3C//DTD SVG 1.1//EN" "http://www.w3.org/Graphics/SVG/1.1/DTD/svg11.dtd">
<svg width="100%" height="100%" viewBox="0 0 1160 601" version="1.1" xmlns="http://www.w3.org/2000/svg" xmlns:xlink="http://www.w3.org/1999/xlink" xml:space="preserve" xmlns:serif="http://www.serif.com/" style="fill-rule:evenodd;clip-rule:evenodd;stroke-linejoin:round;stroke-miterlimit:2;">
    <g transform="matrix(1,0,0,1,-385.545,-1300.37)">
        <g transform="matrix(0.258341,-0.447459,0.447459,0.258341,414.368,1704.94)">
            <path d="M153.065,631.561L153.065,685.589L69.945,602.468L153.065,519.348L153.065,573.376L1015.48,573.376L1015.48,519.348L1098.61,602.468L1015.48,685.589L1015.48,631.561L153.065,631.561Z" style="fill:rgb(0,4,131);fill-opacity:0.2;"/>
        </g>
        <g transform="matrix(0.258341,0.447459,-0.447459,0.258341,1268.28,1182.06)">
            <path d="M153.065,631.561L153.065,685.589L69.945,602.468L153.065,519.348L153.065,573.376L1015.48,573.376L1015.48,519.348L1098.61,602.468L1015.48,685.589L1015.48,631.561L153.065,631.561Z" style="fill:rgb(0,4,131);fill-opacity:0.2;"/>
        </g>
        <g transform="matrix(0.516681,-2.86816e-17,2.86816e-17,0.516681,691.931,1546.26)">
            <path d="M153.065,631.561L153.065,685.589L69.945,602.468L153.065,519.348L153.065,573.376L1015.48,573.376L1015.48,519.348L1098.61,602.468L1015.48,685.589L1015.48,631.561L153.065,631.561Z" style="fill:rgb(0,4,131);fill-opacity:0.2;"/>
        </g>
        <g transform="matrix(1,0,0,1,-283.652,735.631)">
            <text x="1167.75px" y="941.139px" style="font-family:'Arial-BoldMT', 'Arial', sans-serif;font-weight:700;font-size:50px;">TE - Host</text>
            <text x="1135.77px" y="992.775px" style="font-family:'Arial-BoldMT', 'Arial', sans-serif;font-weight:700;font-size:50px;">interactions</text>
        </g>
        <g transform="matrix(1,0,0,1,-147.315,1151.94)">
            <text x="986.906px" y="184.218px" style="font-family:'Arial-BoldMT', 'Arial', sans-serif;font-weight:700;font-size:50px;">TE sequence</text>
        </g>
        <g transform="matrix(1,0,0,1,347.777,1666.47)">
            <text x="984.434px" y="158.384px" style="font-family:'Arial-BoldMT', 'Arial', sans-serif;font-weight:700;font-size:50px;">Genomic</text>
            <text x="1009.45px" y="208.384px" style="font-family:'Arial-BoldMT', 'Arial', sans-serif;font-weight:700;font-size:50px;">context</text>
        </g>
        <g transform="matrix(1,0,0,1,-639.067,1666.47)">
            <text x="1020.97px" y="158.384px" style="font-family:'Arial-BoldMT', 'Arial', sans-serif;font-weight:700;font-size:50px;">Epigenetic</text>
            <text x="1026.55px" y="208.384px" style="font-family:'Arial-BoldMT', 'Arial', sans-serif;font-weight:700;font-size:50px;">regulation</text>
        </g>
    </g>
</svg>
